<?xml version="1.0" encoding="UTF-8"?>
<svg xmlns="http://www.w3.org/2000/svg" xmlns:xlink="http://www.w3.org/1999/xlink" viewBox="0 0 512 512">
  <defs>
    <style>
      .cls-1 {
        fill: #efdad5;
      }

      .cls-1, .cls-2, .cls-3, .cls-4, .cls-5, .cls-6, .cls-7 {
        stroke-width: 0px;
      }

      .cls-2 {
        fill: #f4a97f;
      }

      .cls-3 {
        fill: #ff7517;
      }

      .cls-4 {
        fill: #60514e;
      }

      .cls-5 {
        fill: #efbb60;
      }

      .cls-6 {
        fill: url(#_未命名的渐变_26);
        opacity: .51;
      }

      .cls-7 {
        fill: #ee3800;
      }
    </style>
    <linearGradient id="_未命名的渐变_26" data-name="未命名的渐变 26" x1="104.94" y1="362.63" x2="164.89" y2="362.63" gradientUnits="userSpaceOnUse">
      <stop offset="0" stop-color="#ff7bac"/>
      <stop offset=".43" stop-color="#fe7aaa" stop-opacity=".99"/>
      <stop offset=".58" stop-color="#fc77a5" stop-opacity=".97"/>
      <stop offset=".69" stop-color="#f9729b" stop-opacity=".94"/>
      <stop offset=".78" stop-color="#f56a8e" stop-opacity=".89"/>
      <stop offset=".85" stop-color="#f0617c" stop-opacity=".82"/>
      <stop offset=".92" stop-color="#e95567" stop-opacity=".74"/>
      <stop offset=".98" stop-color="#e1474e" stop-opacity=".64"/>
      <stop offset="1" stop-color="#de4244" stop-opacity=".6"/>
    </linearGradient>
  </defs>
  <g id="_图层_1" data-name="图层 1">
    <path class="cls-3" d="m388.87,47.63c44.18,15.37,85.79,46.74,105.64,87.71,19.85,41.61,17.29,94.11,4.48,140.85-12.8,46.74-35.21,88.99-66.58,120.36-31.37,31.37-71.71,53.14-116.52,72.99-44.82,20.49-94.75,39.05-134.45,26.25-39.69-12.8-69.78-56.98-101.8-97.31-31.37-40.33-64.66-77.47-74.27-119.72-8.96-42.89,5.12-90.91,23.69-139.57,17.93-49.3,39.69-99.23,78.11-117.8,37.77-17.93,92.83-4.48,142.77,2.56,49.94,7.04,95.39,7.68,138.93,23.69Z"/>
  </g>
  <g id="_图层_3" data-name="图层 3">
    <path class="cls-7" d="m395,207c-1.28-19.8-5.1-79.06-52-117-28.48-23.04-59.62-27.51-71-29-38.94-5.1-69.67,6.89-93,16-10.09,3.94-19.73,9.63-39,21-16.2,9.56-25.05,15.89-27,26-.67,3.47-1.76,8.68,1,12,8.23,9.89,39.46-10.23,99-25,24.41-6.06,36.64-7.01,50-4,2.42.55,22.42,5.29,39,21,33.73,31.95,27.7,84.09,26,99-1.71,14.96-7.09,62.04-46,92-34.45,26.53-87.38,33.62-100,16-2.88-4.02-3.14-8.59,0-31,4.21-30.02,6.31-45.02,11-62,5.85-21.2,12.78-52.35,17-95-1.3-6.83-3.79-14.53-9-16-13.67-3.85-36.37,38.07-39,43-5.31,9.94-10.87,26.96-22,61-10.2,31.19-15.31,46.94-16,55-1.34,15.67.33,28.12-6,31-5.02,2.28-9.78-3.88-27-9-9.26-2.75-17.94-5.33-21-2-5.2,5.67,8.33,25.71,12,31,3.26,3.73,8.47,8.84,16,13,9.6,5.3,13.87,4.03,19,9,7.55,7.31,2.5,14.14,9,23,8.31,11.33,27.76,15.47,39,9,4.39-2.53,3.98-4.63,8-7,10.12-5.97,20,3.03,38,7,25.35,5.59,52.25.32,74-9,0,0,0,0,0,0,37.42-13.22,59.74-37.81,67-46,45.68-51.54,44.15-115.1,43-133Z"/>
    <path class="cls-6" d="m163.2,351.71c-.14,2.56-.38,5.11-.7,7.65,0,4.73.13,9.45.2,14.18,2.59-7.04,3.18-15.58.5-21.83Z"/>
  </g>
  <g id="_图层_5" data-name="图层 5">
    <path class="cls-5" d="m295.49,202.73c-6.27.57-10.86,3.44-12.63,4.68-7.57,5.28-12.27,14.6-10.29,16.84.87.99,2.33-.19,3.74.94,2.59,2.06-.92,7.06,1.4,13.1.57,1.47,1.78,3.01,4.21,6.08,4.18,5.29,6.14,5.92,6.08,7.95-.1,3.57-4.78,5.1-7.49,7.95-6.93,7.3-2.6,23.35,2.34,32.75,6.47,12.33,12.96,9.34,27.14,27.61,0,0,8.76,11.28,8.89,22.46.01,1.14.02,3.22-.94,5.61-1.71,4.28-4.47,4.49-7.02,7.95-4.15,5.63-3.03,13.37-2.34,17.31,2.52,14.41,9.61,15.23,14.97,30.88,4.57,13.32,2.16,19.49,7.95,23.4,6.8,4.58,18.62,1.8,20.12-2.81,1.56-4.79-6.97-12.68-7.88-13.5-.05-.05-.08-.07-.08-.07-.02.02,4.04,3.21,6.55,7.95.93,1.76,1.46,2.79,1.4,4.21-.12,2.9-2.54,4.53-3.74,6.08-4.1,5.26.92,15.79,1.87,17.78,7.19,15.08,27.02,18.85,33.69,20.12,12.57,2.39,28.33,1.7,29.48-2.81.95-3.73-8.93-6.88-20.59-21.99-1.84-2.38-3.88-5.05-6.08-8.89-1.72-2.99-7.57-13.2-8.42-24.8-.9-12.32,4.75-13.98,8.42-34.63,1.43-8.02,2.41-13.54,1.87-20.59-1-13.04-5.88-14.06-16.84-38.84-5.27-11.9-12.32-30.14-20.12-35.09-.48-.3-3.09-1.91-6.08-4.68-3.07-2.84-5.15-4.76-6.08-7.49-1.93-5.62,3.02-8.72,1.4-12.63-2.5-6.06-16.56-3.98-17.31-7.95-.61-3.2,8.26-5.61,8.42-11.7.09-3.28-2.43-4.95-1.4-7.02,1.41-2.86,6.83-.88,8.42-3.28,2.55-3.82-5.39-17.6-16.84-20.59-3.73-.97-3.88.24-13.57-.94-7.39-.89-8.67-1.76-12.63-1.4Z"/>
    <path class="cls-2" d="m239.34,230.81c-1.73.74-10.97,4.93-13.57,13.57-1.62,5.4,1.07,6.84,0,12.63-1.94,10.53-11.8,11.14-13.57,20.12-1.69,8.62,5.14,19.48,12.17,20.59,5.89.93,9.65-6.85,14.04-5.15,2.9,1.13,3.71,5.36,4.68,10.76,1.99,11.14-.8,15.64.94,25.27.98,5.46,2.17,4.6,4.21,12.17,1.91,7.08,7.75,28.69-1.4,36.5-3.5,2.99-7.52,2.53-7.95,5.15-.49,2.96,3.99,7.36,8.42,7.49,5.9.17,9.35-7.69,11.7-6.55,1.33.64.42,3.23.94,10.29.51,7.04,1.65,7.73.94,11.23-1.04,5.08-4.02,6-3.28,8.42,1.49,4.85,12.64,7.49,16.38,3.74,2.48-2.49-.62-6.16,1.87-10.76,2.52-4.66,6.88-3.27,10.29-7.02,7.32-8.02-2.42-25.58,2.34-28.07,1.28-.67,3.3-.08,4.21.94,1.6,1.77-.65,4.29.47,8.42.87,3.2,2.8,3.83,2.34,5.61-.54,2.11-3.39,1.76-5.15,4.21-1.89,2.63-1.76,7.41.47,9.36,2.67,2.34,6.06-1.42,13.57-.47,4.15.53,4.25,1.82,11.7,3.74,5.76,1.49,8.65,2.23,9.83.94,2.73-2.99-4.65-14.02-5.61-15.44-3.84-5.66-5.39-5.44-7.02-9.36-2.98-7.16-.52-14.38,0-15.91,2.85-8.37,7.74-7.96,9.83-13.57,5.29-14.23-16.5-42.78-31.35-51.47-1.6-.94-6.66-3.68-7.02-7.95-.28-3.28,2.76-3.96,4.21-7.95,2.08-5.72-2.25-9.14-6.55-24.33-1.64-5.8-1.34-6.46-2.81-9.83-.83-1.91-3.51-8.04-8.89-12.63-7.89-6.74-20.63-9.26-31.35-4.68Z"/>
  </g>
  <g id="_图层_4" data-name="图层 4">
    <path class="cls-1" d="m302,217c-2.19.67-.08,6.08-3,12-4.68,9.49-17.46,10.53-17,15,.3,2.96,6.15,4.88,6,8-.09,1.77-1,3-1,3-.33.44-.65.72-1,1-2.59,2.09-4.01,2.46-4,3,.02,1.4,7,2,7,2,10.1.86,18-1,18-1,18.21-6.07,32.77,1.99,34-2,.31-1-.37-2.03-1-3-2.24-3.42-7.9-4.85-12-5-1.59-.06-3.26.07-4-1-.74-1.07-.12-2.69,0-3,.69-1.8,2.05-2.15,4-4,1.7-1.62,2.97-2.82,3-4,.08-3.26-9.48-3.22-18-10-6.86-5.46-8.66-11.72-11-11Z"/>
    <path class="cls-1" d="m319,356c4.37-.2,3.89,12.61,13,18,8.39,4.96,16.77-1.17,21,4,2.93,3.58,2.32,10.71-1,13-6.21,4.28-20.24-9.53-24-6-2.79,2.61,4.09,10.96,1,23-.58,2.24-1.88,6.11-3,6-1.12-.11-1.32-4.15-2-8-2.3-13.06-8.5-14.62-11-28-1.01-5.39-.73-9.02,0-12,.26-1.06,2.47-9.84,6-10Z"/>
    <path class="cls-4" d="m287,255c-.26-.39,1.18-1.39,1-3-.18-1.67-1.9-2.07-2-3-.23-2.09,7.78-6.03,18-7,11.86-1.12,21.07,2.3,21,3-.02.19-.76.3-1,1-.08.24-.02.49,0,1,.05,1.67.17,1.84,0,2-.48.45-2.18-.18-3-1,0,0,0,0,0,0-6.44-3.33-18.57.64-20,1-7.74,1.93-13.46,6.8-14,6Z"/>
    <path class="cls-1" d="m380,466c1.51,1.49,3.61,2.07,7,3,4.22,1.16,7.7,1.09,11,1,2.79-.08,5.08-.15,8-1,3.09-.89,6.6-1.91,7-4,.33-1.74-2.11-3.85-7-8-3.13-2.65-3.06-2.24-5-4-3.61-3.27-4.02-4.84-8-9-3.21-3.35-4.81-5.03-6-5-5.87.14-13.53,20.55-7,27Z"/>
  </g>
</svg>