<?xml version="1.0" encoding="UTF-8"?>
<svg id="_图层_1" data-name="图层 1" xmlns="http://www.w3.org/2000/svg" xmlns:xlink="http://www.w3.org/1999/xlink" viewBox="0 0 1920 1080">
  <defs>
    <style>
      .cls-1 {
        fill: #debc35;
      }

      .cls-1, .cls-2 {
        stroke-width: 0px;
      }

      .cls-2 {
        fill: url(#_新建渐变色板_2);
      }
    </style>
    <linearGradient id="_新建渐变色板_2" data-name="新建渐变色板 2" x1="796.63" y1="445.29" x2="756.46" y2="1211.29" gradientUnits="userSpaceOnUse">
      <stop offset=".35" stop-color="#84a95f"/>
      <stop offset=".38" stop-color="#88ad61"/>
      <stop offset=".55" stop-color="#64844a"/>
      <stop offset=".75" stop-color="#3f5933"/>
      <stop offset=".91" stop-color="#283e24"/>
      <stop offset="1" stop-color="#20351f"/>
    </linearGradient>
  </defs>
  <path class="cls-2" d="m157.25,1087.1c13.33-25.27,28.91-38.79,41.15-46.52,18.39-11.62,30.93-11.25,48.31-26.84,15.4-13.81,12.14-20,25.05-33.99,26.48-28.7,67.39-32.14,89.46-33.99,18.17-1.53,38.28-3.37,60.83,5.37,38.12,14.77,39.68,41.89,62.62,51.89,50.99,22.23,98.25-89.31,205.76-103.77,12.9-1.74,66.75-7.5,116.3,21.47,62,36.25,57.67,92.04,98.41,98.41,50.08,7.83,70.34-74.34,152.08-80.51,34.92-2.64,51.68,10.82,75.15-3.58,32.77-20.11,21.53-59.51,48.31-75.15,33.86-19.77,96.95,16.89,132.4,55.46,52.98,57.65,72.68,150.55,44.73,171.76-10.27,7.79-23.95,3.61-41.15,0-.04,0-56.08,0-168.18,0-147.64,0-407.76,2.02-651.26,1.79-80.42-.08-197.33-.43-339.94-1.79Z"/>
  <path class="cls-1" d="m1186.36,926.18c-6.62,2.46-6.8,22.86,0,37.57,3.6,7.8,11.68,19.45,17.89,17.89,5.84-1.46,8.14-14.09,7.16-23.26-1.95-18.13-18.06-34.81-25.05-32.21Z"/>
  <path class="cls-1" d="m1186.36,1024.58c-6.24.9-10.04,16.48-8.95,28.63,1.38,15.34,11.12,31.44,17.89,30.42,6.11-.92,9.57-15.75,8.95-26.84-.91-16.16-10.97-33.21-17.89-32.21Z"/>
  <path class="cls-1" d="m782,935.12c-9.93.12-17.55,17.21-17.89,30.42-.18,6.98,1.48,20.7,8.95,23.26,9.14,3.14,25.99-10.77,26.84-26.84.68-12.8-8.8-26.95-17.89-26.84Z"/>
  <path class="cls-1" d="m833.89,1021c-2.35,6.73-4.98,16.56-5.37,28.63-.31,9.63-.56,17.35,3.58,19.68,5.98,3.37,20.33-5.02,23.26-16.1,2.92-11.04-5.33-25.35-21.47-32.21Z"/>
  <path class="cls-1" d="m628.36,973.34c-11.98.14-21.19,20.77-21.59,36.71-.22,8.43,1.78,24.98,10.8,28.07,11.03,3.79,31.37-13,32.39-32.39.82-15.45-10.62-32.52-21.59-32.39Z"/>
  <path class="cls-1" d="m324.08,976.16c-6.24.9-10.04,16.48-8.95,28.63,1.38,15.34,11.12,31.44,17.89,30.42,6.11-.92,9.57-15.75,8.95-26.84-.91-16.16-10.97-33.21-17.89-32.21Z"/>
</svg>