<?xml version="1.0" encoding="UTF-8"?>
<svg id="_图层_1" data-name="图层 1" xmlns="http://www.w3.org/2000/svg" xmlns:xlink="http://www.w3.org/1999/xlink" viewBox="0 0 1920 1080">
  <defs>
    <style>
      .cls-1 {
        fill: #debc35;
      }

      .cls-1, .cls-2 {
        stroke-width: 0px;
      }

      .cls-2 {
        fill: url(#_新建渐变色板_2);
      }
    </style>
    <linearGradient id="_新建渐变色板_2" data-name="新建渐变色板 2" x1="1402.45" y1="383.1" x2="1848.25" y2="922.63" gradientUnits="userSpaceOnUse">
      <stop offset=".35" stop-color="#84a95f"/>
      <stop offset=".38" stop-color="#88ad61"/>
      <stop offset=".55" stop-color="#64844a"/>
      <stop offset=".75" stop-color="#3f5933"/>
      <stop offset=".91" stop-color="#283e24"/>
      <stop offset="1" stop-color="#20351f"/>
    </linearGradient>
  </defs>
  <path class="cls-2" d="m1924.31,149.47c-11.36-6.92-63.41,25.76-84.53,72.92-6.84,15.29-20.4,45.58-6.38,72.92,7.43,14.49,18.69,20.5,15.95,30.85-3.78,14.27-26.85,9.18-41.47,29.45-9.85,13.66-14.36,36.75-15.95,44.87-.23,1.17-.44,2.33-.46,2.46-2.56,14.2-3.07,27.23-2.73,32.6,1.05,16.68,13.94,17.78,23.92,40.67,5.21,11.95,10.82,24.82,6.38,35.06-10.51,24.24-64.75,4.67-110.04,33.65-33.44,21.4-61.94,69.25-52.63,106.57,2.51,10.05,7.71,19.16,3.19,30.85-7.2,18.63-32.38,16.01-43.06,32.25-27.57,41.9,18.65,87.28-3.19,107.98-21.45,20.33-80.6-19.14-137.15,2.8-8.01,3.11-23.34,9.05-36.68,22.44-14.56,14.6-12.18,23.44-22.33,30.85-21.05,15.37-51.35-8.02-79.74-2.8-72.39,13.31-91.58,205.2-65.39,213.15,1.19.36,1.78.13,17.54,0h304.61c30.3,0,60.6.22,90.9,0,47.36-.34,56.74-.96,82.93,0,31.93,1.17,35.92,2.74,63.79,2.8,42.79.1,38.19-3.58,60.6-1.4,15.41,1.5,26.35,4.09,31.9-1.4,4.86-4.82,1.95-12.26,0-23.84,0-.02,0-14.5,0-43.47,0-42.42,1.23-175.04,1.59-235.58.24-39.9.16-78.49,0-155.65-.32-153.57-1.59-339.86-1.59-396.85,0-39.26,0-58.88,0-58.9,1.65-17.45,3.69-22.99,0-25.24Z"/>
  <path class="cls-1" d="m1883.48,222.88c-6.73,1.53-9.22,20.73-7.16,35.78,2.36,17.26,11.36,36.63,17.89,35.78,6.56-.85,8.68-21.88,8.95-30.42.21-6.79.43-18.99-7.16-30.42-2.35-3.54-7.81-11.81-12.52-10.74Z"/>
  <path class="cls-1" d="m1871.91,544.53c-9.31,2.9-11.36,27.85-5.37,46.52,4.63,14.4,16.33,32.21,25.05,30.42,9.42-1.94,15.15-26.75,8.95-46.52-5.22-16.64-19.96-33.11-28.63-30.42Z"/>
  <path class="cls-1" d="m1705.56,630.11c-5.07.66-8.69,22.91-3.58,42.94,4.56,17.89,16.49,35.61,21.47,33.99,5.95-1.93,2.12-31.55-5.37-53.68-2.63-7.77-8.07-23.84-12.52-23.26Z"/>
  <path class="cls-1" d="m1663.19,821.65c-8.4,6.53,18.2,63.13,28.63,60.83,5.82-1.28,9.17-21.51,1.79-37.57-7.57-16.49-25.68-26.94-30.42-23.26Z"/>
  <path class="cls-1" d="m1520.45,853.37c-10.95,9.27,25.07,80.25,39.36,76.93,7.87-1.83,12.02-26.88,3.58-46.52-10.04-23.35-36.52-35.86-42.94-30.42Z"/>
  <path class="cls-1" d="m1446.61,937.83c-6.04,1.94-4.75,23.45-1.79,37.57,4,19.05,14.78,42.44,21.47,41.15,6.89-1.33,10.46-29.08,1.79-51.89-5.19-13.65-15.93-28.61-21.47-26.84Z"/>
  <path class="cls-1" d="m1657.85,1040.08c-10.24,10.66.36,46.53,23.26,55.46,2.14.84,13.71,5.35,19.68,0,10.61-9.52,1.94-48.88-21.47-57.25-.62-.22-14.83-5.12-21.47,1.79Z"/>
</svg>