<?xml version="1.0" encoding="UTF-8"?>
<svg id="_图层_1" data-name="图层 1" xmlns="http://www.w3.org/2000/svg" viewBox="0 0 1920 1080">
  <defs>
    <style>
      .cls-1 {
        fill: #34504d;
        stroke-width: 0px;
      }
    </style>
  </defs>
  <path class="cls-1" d="m-.5,291.52c4.83-1.17,12.92,16.02,19.5,30,9.37,19.9,14.44,30.67,13.5,45-1.15,17.59-10.47,26.72-6,31.5,3.91,4.18,12.59-1.77,25.5-3,7.54-.72,37.37-2.48,57,15,23.74,21.14,21.31,60.38,21,64.5-.95,12.7-6.93,23.65-1.5,28.5,4.66,4.16,11.75-1.05,22.5,1.5,11.86,2.81,18.9,12.87,22.5,18,19.53,27.87,7.73,69.56,4.5,81-5.95,21.03-11.71,23.79-9,33,5.96,20.28,36.41,15.47,51,39,13.86,22.35-2.12,45.23,9,52.5,14.64,9.58,40.99-30.99,79.5-25.5,1.18.17,26.36,4.12,40.5,24,14.44,20.3,7.16,42.89,19.5,48,6.85,2.84,10.4-3.57,27-7.5,7.06-1.67,29.89-7.08,51,4.5,2.53,1.38,20.05,11.33,27,31.5,5.98,17.33-2.38,23.29,1.5,42,3.66,17.67,17.03,40.9,36,45,8.8,1.9,23.86-4.73,54-18,10.2-4.49,15.33-7.16,25.5-10.5,5.66-1.86,20.95-6.87,33-7.5,24.68-1.28,44.58,15.41,61.5,30,36.56,31.51,30.71,46.61,48,55.5,47.84,24.58,107.31-85,204-79.5,54.92,3.13,93.66,39.16,108,52.5,61.97,57.64,70.48,169.45,70.5,169.5-177.49-.82-354.99,0-532.49,0H-2s0-15,0-45c0-33.53-3-335.99-3-335.99-1.22-123-1.79-185.64,0-241.5,1.73-53.97,4.35-63.67,3-103.5-1.19-35.1-4.42-63.07,1.5-64.5Z"/>
</svg>