<?xml version="1.0" encoding="UTF-8"?>
<svg id="_图层_1" data-name="图层 1" xmlns="http://www.w3.org/2000/svg" xmlns:xlink="http://www.w3.org/1999/xlink" viewBox="0 0 1920 1080">
  <defs>
    <style>
      .cls-1 {
        fill: url(#_未命名的渐变_112);
      }

      .cls-1, .cls-2, .cls-3, .cls-4, .cls-5 {
        stroke-width: 0px;
      }

      .cls-2 {
        fill: #46783b;
      }

      .cls-3 {
        fill: url(#_未命名的渐变_112-2);
      }

      .cls-4 {
        fill: url(#_未命名的渐变_112-3);
      }

      .cls-5 {
        fill: url(#_未命名的渐变_112-4);
      }
    </style>
    <linearGradient id="_未命名的渐变_112" data-name="未命名的渐变 112" x1="77.83" y1="750.48" x2="122.73" y2="1149.97" gradientUnits="userSpaceOnUse">
      <stop offset="0" stop-color="#cdd270"/>
      <stop offset=".07" stop-color="#adbf67"/>
      <stop offset=".14" stop-color="#94b061"/>
      <stop offset=".2" stop-color="#85a75d"/>
      <stop offset=".25" stop-color="#80a45c"/>
      <stop offset=".47" stop-color="#88ad61"/>
      <stop offset=".54" stop-color="#81a155"/>
      <stop offset=".69" stop-color="#768e42"/>
      <stop offset=".84" stop-color="#708236"/>
      <stop offset="1" stop-color="#6e7f33"/>
    </linearGradient>
    <linearGradient id="_未命名的渐变_112-2" data-name="未命名的渐变 112" x1="489.56" y1="720.32" x2="534.46" y2="1119.8" xlink:href="#_未命名的渐变_112"/>
    <linearGradient id="_未命名的渐变_112-3" data-name="未命名的渐变 112" x1="1330.39" y1="658.53" x2="1375.29" y2="1058.02" xlink:href="#_未命名的渐变_112"/>
    <linearGradient id="_未命名的渐变_112-4" data-name="未命名的渐变 112" x1="1824.81" y1="644.55" x2="1869.72" y2="1044.03" xlink:href="#_未命名的渐变_112"/>
  </defs>
  <path class="cls-1" d="m-.83,927c4.51-32.14,22.1-54.41,28-62,14.47-18.62,30.44-29.61,47-41,21.01-14.45,28.68-15.51,44-30,9.72-9.2,19.65-18.59,26-34,5.28-12.82,5.59-26.39,6-53,.43-27.99-1.77-37.11,1-38,6.19-2,30.54,39.37,43,86,10.27,38.45,25.18,92.56,5,152-4.24,12.48-12.76,27.22-29,57-21.43,39.3-19.86,30.83-36,61,0,0-33.84,63.26-53,69-1.82.55-3.66.85-3.66.85-5.29.66-10.06-1.47-37.34-.85-29.85.68-40,3.59-45-3-4.18-5.51.32-10.97,3-33,1.07-8.79,1.05-19.53,1-41-.05-21.47-.82-24.29-1-44-.23-24.31-.34-36.46,1-46Z"/>
  <path class="cls-3" d="m394.17,1081c-6.25-11.75,45.33-50.87,60-62,54.26-41.15,62.02-32.8,91-61,12.04-11.72,45.74-45.31,59-97,7.79-30.35,4.49-51.19,10-52,8.56-1.26,25.33,47.79,32,94,8.35,57.83-1.29,96.09-10,129-8.05,30.41-15.85,43.24-28,49-10.17,4.82-17.05,1.69-46,0h-126c-31.04,1.53-39.66,4.4-42,0Z"/>
  <path class="cls-4" d="m1263.17,699c-4.47,1.03-6.71,31.03-11,91-1.77,24.74-2.82,42.41,1,66,1.11,6.87,3.71,22.47,10,39,11.72,30.82,24.82,34.75,75,95,0,0,25.87,31.06,42,57,10.09,16.23,15.13,24.34,16,28,1.1,4.66,2,11.47,7,14,3.01,1.52,5.88.66,10,0,.43-.07,7.62-.05,22,0,29.53.09,36.67,4.89,41,0,4.2-4.74-.19-11.87-6-35-4.45-17.68-6.36-31.31-8-43-3.73-26.6-1.22-30.66-5-51,0,0-3.43-18.45-11-38-17.4-44.95-69.29-60.51-111-102-56.37-56.06-58.6-124.09-72-121Z"/>
  <path class="cls-5" d="m1752.17,596c-5.66,6.17,18.15,29.82,42,77,19.84,39.25,28.15,71.92,33,91,12.55,49.35,2.66,53.83,15,157,4.37,36.55,8.79,63.15,23,88,6.97,12.19,12.53,17.39,28,43,0,0,5.95,9.85,18,24,11.5,13.5,14.08,13.48,15,13,1.85-.96.74-5.69,0-13,0-.01,0-9.01,0-27,0-37.12,1.73-75.9,0-107-1.8-32.3-5.71-27.1-16-91-13.33-82.79-5.27-82.22-16-114-20.06-59.41-58.99-93.06-73-105-27.4-23.34-62.88-42.68-69-36Z"/>
  <path class="cls-2" d="m1754.17,595c-.67.86,8.43,8.87,13,13,0,0,21.63,19.56,49,53,25.46,31.1,36.78,65.33,43,84,12.66,38,15.11,71.33,20,138,1.39,18.98,2.6,31.65,5,57,2.63,27.74,2.98,35.82,6,48,.3,1.21,3.2,12.14,9,34,.48,1.8,1.53,5.77,3,11,2.78,9.89,4.16,14.84,5,17,3.8,9.81,5.47,8.13,14,24,.78,1.45,2.85,5.33,4,5,.66-.19.81-1.72,1-4,.25-2.92.38-4.45,0-6-.94-3.85-4.05-4.01-8-9-1.73-2.19-2.59-4-4-7-2.64-5.61-3.63-10.29-4-12-2.35-10.75-5.23-16.47-9-32-2.73-11.24-6.04-28.11-10-63-1.71-15.09-3.17-32.27-6-66-3.36-40.02-3.41-43.04-5-57-3.18-27.99-4.87-42.37-10-61-4.22-15.34-8.64-26.09-16-44-9.25-22.51-13.88-33.76-23-48-8.71-13.6-16.67-22.38-29-36-12.84-14.18-21.62-21.82-30-28-7.56-5.57-17.35-11.84-18-11Z"/>
  <path class="cls-2" d="m1266.17,705c-.97.13-.26,12.5,1,23,1.02,8.53,2.41,15.81,6,31,5.04,21.35,7.56,32.02,11,42,4.74,13.74,9.46,23.64,13,31,1.97,4.1,10.75,22.15,26,45,13.96,20.91,26.77,36.02,37,48,11.81,13.83,11.82,12.63,23,26,10.49,12.54,20.2,24.23,31,41,9.48,14.73,15.66,23.92,21,38,3.02,7.95,6.32,18.76,7,21,3.31,10.9,9.59,20.87,12,32,.21.95.78,3.84,3,5,1.2.63,3.01.83,4,0,1.82-1.51.35-6-1-10-3.91-11.55-5.86-17.32-9-25-3.62-8.84-2.94-8.46-6-16-1.08-2.66-5.74-14.01-15-30-7.99-13.8-14.88-23.17-25-37-7.42-10.14-16.18-22.11-29-37-13.5-15.68-19.4-20.54-32-37-5.58-7.3-9.7-13.23-13-18-8.48-12.24-15.9-22.95-23-36-8.66-15.93-13.09-28.46-20-48-5.81-16.42-8.71-24.63-11-36-1.83-9.1-2.46-15.7-6-33-2.03-9.93-4.11-20.12-5-20Z"/>
  <path class="cls-2" d="m-.83,1070c.47-1.28,1.35-1.69,3-3,0,0,1.67-1.67,5-5,7.18-7.18,16-19,16-19,7.11-9.52,10.39-12.25,23-27,19.72-23.08,42.09-49.38,64-84,11.39-18,17.66-30.21,21-37,10.96-22.28,17.43-41.3,21-53,5.42-17.75,11.26-36.87,13-63,.46-6.88,1.77-31.18-4-62-5.03-26.87-12.29-46.56-11-47,.98-.33,5.84,10.84,9,20,4.03,11.66,5.66,21.04,7,29,.46,2.71,2.14,13,3,27,.34,5.49.97,18.37,0,34-1.8,29.09-8.15,51.57-12,65-6.99,24.35-15.45,43.71-22,57-10.8,21.92-21.3,37.27-28,47-8.82,12.8-18.22,24.2-37,47-19.68,23.89-17.18,19.67-33,39-13.52,16.52-36.18,44.33-38,43-.19-.14.04-.44,0-3-.05-3.19-.43-3.83,0-5Z"/>
  <path class="cls-2" d="m534.17,1068c5.85-5.53,12.56-14.69,26-33,21.58-29.41,36.38-62.59,37-64,5.84-13.24,17.19-39.47,23-75,6.63-40.57,2.69-72.89,5-73,1.41-.06,3.34,11.88,4,20,.65,7.94.23,14.01,0,17-1.25,16.47-2.18,28.75-6,47-5.34,25.49-12.45,44.2-17,56-7.52,19.51-12.97,33.66-24,51-4.64,7.3-4.05,5.38-26,36,0,0-5.62,7.84-14,18-7.8,9.45-6.87,6.93-8,9-.59,1.09-1.79,3.5-4,4-.7.16-1,.02-3,0-3.11-.03-3.76.31-4,0-1.18-1.48,10.93-12.94,11-13Z"/>
</svg>