<?xml version="1.0" encoding="UTF-8"?>
<svg id="_图层_2" data-name=" 图层 2" xmlns="http://www.w3.org/2000/svg" viewBox="0 0 512 512">
  <defs>
    <style>
      .cls-1 {
        fill: #495263;
      }

      .cls-1, .cls-2 {
        stroke-width: 0px;
      }

      .cls-2 {
        fill: #fdffdd;
      }
    </style>
  </defs>
  <circle class="cls-2" cx="256" cy="256" r="256"/>
  <path class="cls-1" d="m204.81,506.85V26.44h-12.35v477.63c3.97,1.37,8.21,2.06,12.35,2.79Z"/>
  <path class="cls-1" d="m324.54,502.87c.47-.23.93-.4,1.38-.48V26.44h-12.39v479.06l10.35-2.42c.21-.1.43-.17.66-.21Z"/>
  <path class="cls-1" d="m303.73,474.68l-103.08,16.2,2.02,13.74c36.23-2.96,72.46-5.92,108.69-8.89,1.13.2,2.37.18,3.33-.52,4.3-3.18,1.68-19.38-5.42-21.41-1.11-.32-2.93-.46-5.54.87h0Z"/>
  <path class="cls-1" d="m211.53,429.49h104.26v-13.9c-1.48.41-2.98.79-4.48,1.16-24.71,5.97-59.61,7.74-104.26-9.27-1.09-.38-2.31-.55-3.36,0-4.72,2.47-4.48,18.89,2.24,22.01,1.05.49,2.83.91,5.61,0h0Z"/>
  <path class="cls-1" d="m210.41,358.84h104.26v-13.9c-36.25-2.7-72.5-5.4-108.75-8.11-1.09-.38-2.31-.55-3.36,0-4.72,2.47-4.48,18.89,2.24,22.01,1.05.49,2.83.91,5.61,0Z"/>
  <path class="cls-1" d="m304.65,266.54l-103.8,10.1,1.26,13.84c1.44-.55,2.89-1.08,4.36-1.59,24.06-8.34,58.64-13.48,104.64-.88,1.12.27,2.35.32,3.35-.33,4.47-2.92,2.75-19.25-4.23-21.69-1.09-.38-2.9-.64-5.58.54h0Z"/>
  <path class="cls-1" d="m212.32,211.72l104.26.03v-13.9c-36.24-2.71-72.49-5.43-108.74-8.14-1.09-.38-2.31-.55-3.36,0-4.72,2.47-4.49,18.89,2.24,22.01,1.05.49,2.83.91,5.61,0h-.01Z"/>
  <rect class="cls-1" x="204.81" y="127.2" width="108.75" height="17.37"/>
  <rect class="cls-1" x="204.81" y="56.55" width="108.75" height="17.37"/>
</svg>