<?xml version="1.0" encoding="UTF-8"?>
<svg id="_图层_2" data-name="图层 2" xmlns="http://www.w3.org/2000/svg" xmlns:xlink="http://www.w3.org/1999/xlink" viewBox="0 0 512 512">
  <defs>
    <style>
      .cls-1 {
        filter: url(#drop-shadow-2);
      }

      .cls-1, .cls-2, .cls-3, .cls-4, .cls-5, .cls-6, .cls-7, .cls-8, .cls-9, .cls-10 {
        fill: #495263;
        stroke-width: 0px;
      }

      .cls-2 {
        filter: url(#drop-shadow-7);
      }

      .cls-3 {
        filter: url(#drop-shadow-3);
      }

      .cls-4 {
        filter: url(#drop-shadow-10);
      }

      .cls-5 {
        filter: url(#drop-shadow-4);
      }

      .cls-6 {
        filter: url(#drop-shadow-9);
      }

      .cls-7 {
        filter: url(#drop-shadow-8);
      }

      .cls-8 {
        filter: url(#drop-shadow-1);
      }

      .cls-9 {
        filter: url(#drop-shadow-5);
      }

      .cls-10 {
        filter: url(#drop-shadow-6);
      }
    </style>
    <filter id="drop-shadow-1" filterUnits="userSpaceOnUse">
      <feOffset dx="11.39" dy="1.14"/>
      <feGaussianBlur result="blur" stdDeviation="5.7"/>
      <feFlood flood-color="#000" flood-opacity=".75"/>
      <feComposite in2="blur" operator="in"/>
      <feComposite in="SourceGraphic"/>
    </filter>
    <filter id="drop-shadow-2" filterUnits="userSpaceOnUse">
      <feOffset dx="11.39" dy="1.14"/>
      <feGaussianBlur result="blur-2" stdDeviation="5.7"/>
      <feFlood flood-color="#000" flood-opacity=".75"/>
      <feComposite in2="blur-2" operator="in"/>
      <feComposite in="SourceGraphic"/>
    </filter>
    <filter id="drop-shadow-3" filterUnits="userSpaceOnUse">
      <feOffset dx="11.39" dy="1.14"/>
      <feGaussianBlur result="blur-3" stdDeviation="5.7"/>
      <feFlood flood-color="#000" flood-opacity=".75"/>
      <feComposite in2="blur-3" operator="in"/>
      <feComposite in="SourceGraphic"/>
    </filter>
    <filter id="drop-shadow-4" filterUnits="userSpaceOnUse">
      <feOffset dx="11.39" dy="1.14"/>
      <feGaussianBlur result="blur-4" stdDeviation="5.7"/>
      <feFlood flood-color="#000" flood-opacity=".75"/>
      <feComposite in2="blur-4" operator="in"/>
      <feComposite in="SourceGraphic"/>
    </filter>
    <filter id="drop-shadow-5" filterUnits="userSpaceOnUse">
      <feOffset dx="11.39" dy="1.14"/>
      <feGaussianBlur result="blur-5" stdDeviation="5.7"/>
      <feFlood flood-color="#000" flood-opacity=".75"/>
      <feComposite in2="blur-5" operator="in"/>
      <feComposite in="SourceGraphic"/>
    </filter>
    <filter id="drop-shadow-6" filterUnits="userSpaceOnUse">
      <feOffset dx="11.39" dy="1.14"/>
      <feGaussianBlur result="blur-6" stdDeviation="5.7"/>
      <feFlood flood-color="#000" flood-opacity=".75"/>
      <feComposite in2="blur-6" operator="in"/>
      <feComposite in="SourceGraphic"/>
    </filter>
    <filter id="drop-shadow-7" filterUnits="userSpaceOnUse">
      <feOffset dx="11.39" dy="1.14"/>
      <feGaussianBlur result="blur-7" stdDeviation="5.7"/>
      <feFlood flood-color="#000" flood-opacity=".75"/>
      <feComposite in2="blur-7" operator="in"/>
      <feComposite in="SourceGraphic"/>
    </filter>
    <filter id="drop-shadow-8" filterUnits="userSpaceOnUse">
      <feOffset dx="11.39" dy="1.14"/>
      <feGaussianBlur result="blur-8" stdDeviation="5.7"/>
      <feFlood flood-color="#000" flood-opacity=".75"/>
      <feComposite in2="blur-8" operator="in"/>
      <feComposite in="SourceGraphic"/>
    </filter>
    <filter id="drop-shadow-9" filterUnits="userSpaceOnUse">
      <feOffset dx="11.39" dy="1.14"/>
      <feGaussianBlur result="blur-9" stdDeviation="5.7"/>
      <feFlood flood-color="#000" flood-opacity=".75"/>
      <feComposite in2="blur-9" operator="in"/>
      <feComposite in="SourceGraphic"/>
    </filter>
    <filter id="drop-shadow-10" filterUnits="userSpaceOnUse">
      <feOffset dx="11.39" dy="1.14"/>
      <feGaussianBlur result="blur-10" stdDeviation="5.7"/>
      <feFlood flood-color="#000" flood-opacity=".75"/>
      <feComposite in2="blur-10" operator="in"/>
      <feComposite in="SourceGraphic"/>
    </filter>
  </defs>
  <rect class="cls-8" x="196.79" y="-62" width="12.33" height="593"/>
  <path class="cls-1" d="m213.61,483.51h104.26v-13.9c-36.25-2.7-72.5-5.4-108.75-8.11-1.09-.38-2.31-.55-3.36,0-4.72,2.47-4.48,18.89,2.24,22.01,1.05.49,2.83.91,5.61,0Z"/>
  <rect class="cls-3" x="317.87" y="-62" width="12.33" height="593"/>
  <path class="cls-5" d="m308.05,386.24l-103.08,16.2,2.02,13.74c36.23-2.96,72.46-5.92,108.69-8.89,1.13.2,2.37.18,3.33-.52,4.3-3.18,1.68-19.38-5.42-21.41-1.11-.32-2.93-.46-5.54.87Z"/>
  <path class="cls-9" d="m215.85,341.05h104.26v-13.9c-1.48.41-2.98.79-4.48,1.16-24.71,5.97-59.61,7.74-104.26-9.27-1.09-.38-2.31-.55-3.36,0-4.72,2.47-4.48,18.89,2.24,22.01,1.05.49,2.83.91,5.61,0Z"/>
  <path class="cls-10" d="m214.73,270.4h104.26v-13.9c-36.25-2.7-72.5-5.4-108.75-8.11-1.09-.38-2.31-.55-3.36,0-4.72,2.47-4.48,18.89,2.24,22.01,1.05.49,2.83.91,5.61,0Z"/>
  <path class="cls-2" d="m308.97,178.1l-103.8,10.1,1.26,13.84c1.44-.55,2.89-1.08,4.36-1.59,24.06-8.34,58.64-13.48,104.64-.88,1.12.27,2.35.32,3.35-.33,4.47-2.92,2.75-19.25-4.23-21.69-1.09-.38-2.9-.64-5.58.54Z"/>
  <path class="cls-7" d="m216.64,123.28l104.26.03v-13.9c-36.24-2.71-72.49-5.43-108.74-8.14-1.09-.38-2.31-.55-3.36,0-4.72,2.47-4.49,18.89,2.24,22.01,1.05.49,2.83.91,5.61,0Z"/>
  <rect class="cls-6" x="209.13" y="38.76" width="108.75" height="17.37"/>
  <rect class="cls-4" x="209.13" y="-31.89" width="108.75" height="17.37"/>
</svg>