<?xml version="1.0" encoding="UTF-8"?>
<svg id="_图层_2" data-name="图层 2" xmlns="http://www.w3.org/2000/svg" viewBox="0 0 512 512">
  <defs>
    <style>
      .cls-1 {
        fill: #495263;
        stroke-width: 0px;
      }
    </style>
  </defs>
  <rect class="cls-1" x="204" y="0" width="11" height="512"/>
  <rect class="cls-1" x="312" width="11" height="512"/>
  <path class="cls-1" d="m219,471h93v-12c-32.33-2.33-64.67-4.67-97-7-.97-.32-2.06-.48-3,0-4.21,2.14-4,16.31,2,19,.94.42,2.53.79,5,0Z"/>
  <path class="cls-1" d="m303.24,387.01l-91.94,13.99,1.81,11.86c32.32-2.56,64.63-5.12,96.95-7.67,1.01.17,2.11.16,2.97-.45,3.84-2.74,1.5-16.73-4.84-18.48-.99-.27-2.62-.4-4.94.75Z"/>
  <path class="cls-1" d="m221,348h93v-12c-1.32.35-2.65.68-4,1-22.04,5.16-53.17,6.68-93-8-.97-.32-2.06-.48-3,0-4.21,2.14-4,16.31,2,19,.94.42,2.53.79,5,0Z"/>
  <path class="cls-1" d="m220,287h93v-12c-32.33-2.33-64.67-4.67-97-7-.97-.32-2.06-.48-3,0-4.21,2.14-4,16.31,2,19,.94.42,2.53.79,5,0Z"/>
  <path class="cls-1" d="m304.06,207.3l-92.59,8.72,1.13,11.95c1.28-.47,2.58-.93,3.89-1.37,21.46-7.2,52.31-11.64,93.34-.76,1,.23,2.1.28,2.99-.28,3.99-2.52,2.45-16.62-3.77-18.73-.97-.33-2.59-.55-4.98.47Z"/>
  <path class="cls-1" d="m221.7,159.97l93,.03v-12c-32.33-2.34-64.66-4.69-96.99-7.03-.97-.32-2.06-.48-3,0-4.21,2.13-4,16.31,1.99,19,.94.42,2.53.79,5,0Z"/>
  <rect class="cls-1" x="215" y="87" width="97" height="15"/>
  <rect class="cls-1" x="215" y="26" width="97" height="15"/>
</svg>