<?xml version="1.0" encoding="UTF-8"?>
<svg id="bookmark" data-name="bookmark" xmlns="http://www.w3.org/2000/svg" viewBox="0 0 512 512">
  <defs>
    <style>
      .cls-1 {
        fill: #fcf2e3;
      }

      .cls-1, .cls-2, .cls-3, .cls-4, .cls-5, .cls-6, .cls-7, .cls-8, .cls-9 {
        stroke-width: 0px;
      }

      .cls-10 {
        stroke-dasharray: 0 0 7.47 7.47;
      }

      .cls-10, .cls-11, .cls-12 {
        fill: none;
        stroke: #1e120d;
        stroke-linecap: round;
        stroke-linejoin: round;
      }

      .cls-2 {
        fill: #ed8d4e;
      }

      .cls-11 {
        stroke-dasharray: 0 0 6 6;
      }

      .cls-3 {
        fill: #38b6e7;
      }

      .cls-4 {
        fill: #e76723;
      }

      .cls-5 {
        fill: #f8e2ee;
      }

      .cls-6 {
        fill: #fff;
      }

      .cls-7 {
        fill: #e25986;
      }

      .cls-8 {
        fill: #550e2d;
      }

      .cls-9 {
        fill: #dd601a;
      }
    </style>
  </defs>
  <g>
    <rect class="cls-4" x="199.72" y="74.49" width="112.34" height="397.45" rx="23.74" ry="23.74"/>
    <path class="cls-3" d="m229.42,163.12c12.39,1.5,25.02,2.07,37.5,1.85,15.32-.26,30.39-2.42,45.14-6.05v-17.65c0-13.11-112.34-13.11-112.34,0v16.71c9.89,1.78,19.72,3.93,29.7,5.14Z"/>
    <g>
      <path class="cls-4" d="m307.28,55.68c-1.01-4.3-1.9-10.77-5.19-14.04-3.33-3.32-6.97-.71-9.88,1.77-4.9,4.18-8.83,9.38-12.24,14.8-3.23,5.13-7.67,11.3-8.97,17.33-.1.23-.16.49-.14.81.34,5.04,3.38,9.93,5.75,14.3,3.06,5.63,5.42,11.91,9.94,16.46,8.26,8.3,13.25,9.82,21.87,17.53,1.12,1,2.88.31,2.94-1.22.91-25.63,1.84-42.59-4.07-67.74Z"/>
      <path class="cls-4" d="m232.23,58.89c-3.37-5.45-7.25-10.71-12.07-14.96-2.82-2.5-6.48-5.61-10.11-2.67-3.63,2.94-4.57,10.24-5.56,14.43-5.9,25.15-4.98,42.11-4.07,67.74.05,1.53,1.82,2.22,2.94,1.22,8.62-7.7,12.5-11.82,19-17.53,4.66-4.09,9.54-10.48,12.52-15.92,2.46-4.5,5.69-9.62,6.04-14.84.02-.31-.04-.58-.14-.8-1.25-5.81-5.47-11.69-8.55-16.66Z"/>
    </g>
    <path class="cls-5" d="m301.28,65.1c-.47-2.3-1.25-9.51-4.03-10.6-3.01-1.18-5.03,3.77-6.16,5.59-1.58,2.52-3.15,5.06-4.64,7.64-1.16,2-3.14,4.46-3.27,6.84-.06,1.08,1.15,2,2.18,1.66,0,0,.01,0,.02,0,4.68,1.44,9.36,2.88,14.04,4.31.75.23,1.35-.04,1.71-.51.27-.27.46-.65.46-1.15.08-4.51.61-9.31-.31-13.77Z"/>
    <path class="cls-5" d="m210.5,65.1c.47-2.3,1.25-9.51,4.03-10.6,3.01-1.18,5.03,3.77,6.16,5.59,1.58,2.52,3.15,5.06,4.64,7.64,1.16,2,3.14,4.46,3.27,6.84.06,1.08-1.15,2-2.18,1.66,0,0-.01,0-.02,0-4.68,1.44-9.36,2.88-14.04,4.31-.75.23-1.35-.04-1.71-.51-.27-.27-.46-.65-.46-1.15-.08-4.51-.61-9.31.31-13.77Z"/>
    <path class="cls-1" d="m301.44,78.45s-.05-.03-.08-.05c-.3-.2-.61-.39-.92-.58-.07-.04-.14-.08-.2-.12-.27-.16-.55-.32-.83-.46-.09-.05-.19-.1-.29-.15-.26-.13-.52-.26-.78-.38-.11-.05-.23-.1-.34-.16-.25-.11-.5-.22-.75-.32-.13-.05-.26-.1-.39-.15-.24-.09-.49-.18-.74-.27-.14-.05-.28-.1-.42-.14-.24-.08-.48-.15-.73-.22-.15-.04-.3-.09-.45-.13-.24-.06-.48-.12-.73-.18-.16-.04-.31-.07-.47-.11-.24-.05-.49-.1-.74-.14-.16-.03-.32-.06-.48-.09-.25-.04-.51-.07-.77-.11-.16-.02-.31-.04-.47-.06-.28-.03-.57-.05-.85-.07-.13,0-.27-.02-.4-.03-.42-.02-.84-.03-1.27-.03h-64.87c-.43,0-.85.01-1.27.03-.13,0-.27.02-.4.03-.28.02-.57.04-.85.07-.16.02-.31.04-.47.06-.26.03-.51.06-.77.11-.16.03-.32.06-.48.09-.25.04-.49.09-.74.14-.16.03-.31.07-.47.11-.24.06-.49.12-.73.18-.15.04-.3.08-.45.13-.24.07-.49.14-.73.22-.14.05-.28.09-.42.14-.25.09-.49.18-.74.27-.13.05-.26.1-.39.15-.25.1-.51.21-.75.32-.11.05-.23.1-.34.15-.26.12-.52.25-.78.38-.1.05-.19.1-.29.15-.28.15-.56.3-.83.46-.07.04-.14.08-.2.12-.31.19-.62.38-.92.58-.03.02-.05.03-.08.05-6.4,4.25-10.62,11.52-10.62,19.78v40.22c4.39,12.09,15.59,21.04,27.37,25.26,5.97,2.14,21.59,8.67,28.8,8.67s22.82-6.53,28.8-8.67c11.78-4.21,22.99-13.16,27.37-25.26v-40.22c0-8.26-4.22-15.53-10.62-19.78Z"/>
    <path class="cls-4" d="m301.44,77.49s-.05-.03-.08-.05c-2.67-1.77-8.88-5.44-8.88-5.44-8.25-6.23-18.51-7.07-29.64-7.07h-13.9c-11.13,0-21.97,3.26-29.64,7.07,0,0-6.2,3.67-8.88,5.44-.03.02-.05.03-.08.05-6.4,4.25-10.62,12.48-10.62,20.74v18.73c13.44-4.62,20.62-5.57,29.06,9.49,2.1,3.75,5.61-3.27,8.53-8.05,4.07-6.66,11.18-9.42,18.54-9.38,7.82.04,14.27,2.24,18.62,9.38,2.92,4.78,6.43,11.8,8.53,8.05,8.43-15.06,15.62-14.11,29.06-9.49v-18.73c0-8.26-4.22-16.48-10.62-20.74Z"/>
    <rect class="cls-6" x="213.26" y="204" width="85.26" height="234.7" rx="18.01" ry="18.01"/>
    <g>
      <g>
        <path class="cls-9" d="m242.73,433.42c-6.18-9.27-18.63-15.73-29.13-9.17-8.03,5.01-10.7,15.85-7.93,24.57,3.53,11.11,16,18.46,27.36,14.86,13.51-4.29,16.3-18.96,9.71-30.26Z"/>
        <path class="cls-5" d="m238.3,444c-.94-4.49-4.57-8-9.07-8.86-4.71-.89-9.56,1.23-11.98,5.38-2.49,4.27-2.1,9.57,1.15,13.32,3.29,3.8,8.62,4.99,13.22,3,5.05-2.19,7.69-7.49,6.68-12.85Z"/>
        <path class="cls-5" d="m214.28,436.67c1.23,0,2.52-.54,3.39-1.4.83-.83,1.46-2.2,1.41-3.39-.06-1.24-.46-2.53-1.41-3.39-.94-.86-2.09-1.4-3.39-1.4-1.23,0-2.52.54-3.39,1.4-.83.83-1.46,2.2-1.4,3.39.06,1.24.46,2.53,1.4,3.39.94.86,2.09,1.4,3.39,1.4h0Z"/>
        <path class="cls-5" d="m225.12,432.57c1.05,0,2.14-.46,2.88-1.19s1.24-1.87,1.19-2.88c-.1-2.21-1.79-4.08-4.08-4.08-1.05,0-2.14.46-2.88,1.19s-1.24,1.87-1.19,2.88c.1,2.21,1.79,4.08,4.08,4.08h0Z"/>
        <path class="cls-5" d="m210.62,446.33c1.05,0,2.14-.46,2.88-1.19.71-.71,1.24-1.87,1.19-2.88-.1-2.21-1.79-4.08-4.08-4.08-1.05,0-2.14.46-2.88,1.19-.71.71-1.24,1.87-1.19,2.88.1,2.21,1.79,4.08,4.08,4.08h0Z"/>
      </g>
      <g>
        <path class="cls-9" d="m269.05,433.42c6.18-9.27,18.63-15.73,29.13-9.17,8.03,5.01,10.7,15.85,7.93,24.57-3.53,11.11-16,18.46-27.36,14.86-13.51-4.29-16.3-18.96-9.71-30.26Z"/>
        <path class="cls-5" d="m273.48,444c.94-4.49,4.57-8,9.07-8.86,4.71-.89,9.56,1.23,11.98,5.38,2.49,4.27,2.1,9.57-1.15,13.32-3.29,3.8-8.62,4.99-13.22,3-5.05-2.19-7.69-7.49-6.68-12.85Z"/>
        <path class="cls-5" d="m297.5,436.67c-1.23,0-2.52-.54-3.39-1.4-.83-.83-1.46-2.2-1.4-3.39.06-1.24.46-2.53,1.4-3.39.94-.86,2.09-1.4,3.39-1.4,1.23,0,2.52.54,3.39,1.4.83.83,1.46,2.2,1.4,3.39-.06,1.24-.46,2.53-1.4,3.39-.94.86-2.09,1.4-3.39,1.4h0Z"/>
        <path class="cls-5" d="m286.66,432.57c-1.05,0-2.14-.46-2.88-1.19-.71-.71-1.24-1.87-1.19-2.88.1-2.21,1.79-4.08,4.08-4.08,1.05,0,2.14.46,2.88,1.19.71.71,1.24,1.87,1.19,2.88-.1,2.21-1.79,4.08-4.08,4.08h0Z"/>
        <path class="cls-5" d="m301.16,446.33c-1.05,0-2.14-.46-2.88-1.19-.71-.71-1.24-1.87-1.19-2.88.1-2.21,1.79-4.08,4.08-4.08,1.05,0,2.14.46,2.88,1.19.71.71,1.24,1.87,1.19,2.88-.1,2.21-1.79,4.08-4.08,4.08h0Z"/>
      </g>
    </g>
    <g>
      <g>
        <path class="cls-4" d="m290.3,194.51c-7.68.48-15.37.96-23.05,1.44-.07,0-.12.02-.19.03-.67,0-1.3.37-1.47,1.23-2.03,10.15-3.62,20.77-3.86,31.14-.19,8.23,2.38,20.77,12.63,21.69,8.81.79,13.73-9.73,15.26-16.79,2.58-11.93,2.24-24.88,2.41-37.01.01-.89-.8-1.78-1.72-1.72Z"/>
        <path class="cls-4" d="m244.69,195.98c-.06,0-.11-.02-.16-.03-7.68-.48-15.37-.96-23.05-1.44-.92-.06-1.73.84-1.72,1.72.16,12.15-.15,25.07,2.41,37.01,1.5,7.03,6.47,17.63,15.26,16.79,10.26-.97,12.8-13.42,12.63-21.69-.22-10.41-2.16-20.9-3.86-31.14-.15-.9-.8-1.27-1.5-1.24Z"/>
      </g>
      <path class="cls-8" d="m232.27,238.71c-.21,3.12.33,6.72,1.01,9.77.29,1.31,2.4,1.03,2.35-.32-.11-3.11-.49-6.74-1.48-9.71-.35-1.04-1.81-.83-1.88.25h0Z"/>
      <path class="cls-8" d="m238.86,238.39c-.05,1.64.2,3.29.31,4.93.09,1.48-.04,3.06.42,4.47.32,1,1.79,1.06,2.09,0,.44-1.55.17-3.26.05-4.85-.12-1.62-.21-3.28-.65-4.85-.35-1.24-2.17-.97-2.21.3h0Z"/>
      <path class="cls-8" d="m272.45,237.72c-1.3.62-1.29,2.15-1.41,3.45-.21,2.15-.21,4.32-.14,6.47.02.6.39,1.01.92,1.21.43.16.56.08.97-.13.37-.19.65-.67.62-1.09-.11-2.03-.11-4.04,0-6.07.07-1.33.47-2.86-.64-3.81-.1-.08-.21-.1-.33-.04h0Z"/>
      <path class="cls-8" d="m278.37,238.72c-.98,2.85-1.16,6.12-1.54,9.1-.18,1.45,2.35,1.81,2.58.35.46-2.96,1.19-6.16,1.04-9.17-.06-1.21-1.68-1.42-2.08-.28h0Z"/>
    </g>
    <path class="cls-8" d="m263.75,118.57s0-.07,0-.11c-1.02-4.43-4.72-4.15-8.47-4.11-3.56.04-7.55.5-7.31,5.22.12,2.28,1.63,4.21,3.41,5.51,1.14.83,3.03,2.19,4.51,2.17,1.5-.02,3.34-1.33,4.51-2.17,2.14-1.55,3.48-3.72,3.38-6.39,0-.04-.02-.07-.03-.11Z"/>
    <g>
      <path class="cls-7" d="m218.21,125.03c-.54-2.59-2.63-4.62-5.23-5.11-2.72-.51-5.51.71-6.91,3.1-1.44,2.46-1.21,5.52.66,7.69,1.9,2.19,4.97,2.88,7.63,1.73,2.91-1.26,4.44-4.32,3.86-7.41Z"/>
      <path class="cls-7" d="m293.57,125.03c.54-2.59,2.63-4.62,5.23-5.11,2.72-.51,5.51.71,6.91,3.1,1.44,2.46,1.21,5.52-.66,7.69-1.9,2.19-4.97,2.88-7.63,1.73-2.91-1.26-4.44-4.32-3.86-7.41Z"/>
    </g>
    <g>
      <path class="cls-8" d="m240.05,108.67c-.54-2.59-2.63-4.62-5.23-5.11-2.72-.51-5.51.71-6.91,3.1-1.44,2.46-1.21,5.52.66,7.69,1.9,2.19,4.97,2.88,7.63,1.73,2.91-1.26,4.44-4.32,3.86-7.41Z"/>
      <path class="cls-8" d="m271.73,108.67c.54-2.59,2.63-4.62,5.23-5.11,2.72-.51,5.51.71,6.91,3.1,1.44,2.46,1.21,5.52-.66,7.69-1.9,2.19-4.97,2.88-7.63,1.73-2.91-1.26-4.44-4.32-3.86-7.41Z"/>
    </g>
    <path class="cls-8" d="m255.7,122.58c-1.04,1.47-1.01,3.65-1.13,5.38-.16,2.25-.26,4.55-.07,6.8.13,1.49,2.34,1.54,2.36,0,.03-2.15-.02-4.29.02-6.44.03-1.79.4-3.9-.21-5.62-.16-.45-.7-.51-.97-.13h0Z"/>
    <path class="cls-8" d="m270.26,135.61c.02-.12,0-.25-.05-.39-.03-.15-.08-.27-.16-.36-1.21-2.9-3.23-4.67-6.55-3.54-2.63.89-3.95,2.35-6.95,2.44-2.3.07-4.31-.32-6.39-1.41-2.58-1.36-5.09-2.32-7.28.26-2.51,2.96-1.91,8.12-.12,11.3,2.46,4.37,10.87,7.43,15.61,6.13,7.47-2.05,13.12-6.04,11.87-14.42Z"/>
    <path class="cls-6" d="m246.71,69.44c-1.17,1.03-1.9,2.6-2.6,3.97-.72,1.38-1.84,2.83-2.09,4.39-.31,1.93,1.37,3.21,3.15,2.42,1.69-.75,2.9-2.76,3.71-4.35.86-1.7,1.47-3.68,1.04-5.58-.34-1.49-2.18-1.75-3.2-.85h0Z"/>
    <path class="cls-6" d="m254.97,74.7c-.67,1.46-.67,2.99-.63,4.58.05,1.73-.03,3.44,1.65,4.44.66.39,1.67.46,2.32,0,1.66-1.18,1.55-2.61,1.46-4.44-.07-1.55-.12-3.2-.89-4.58-.77-1.39-3.2-1.57-3.91,0h0Z"/>
    <path class="cls-6" d="m264.01,72.82c.24,2.19,1.22,5.52,3.18,6.73.92.56,2.51.28,2.97-.78,1.09-2.47-.23-5.74-1.88-7.72-1.33-1.6-4.5-.35-4.27,1.77h0Z"/>
    <path class="cls-6" d="m219.21,449.7c2.41,7.91,16.35,7.1,16.9-1.47.04-.55-.52-1.1-1.06-1.06-2.34.15-3.74,1.59-5.85,2.4-2.64,1.02-4.18-.41-5.82-2.29-1.65-1.9-4.88.11-4.17,2.43h0Z"/>
    <path class="cls-6" d="m289.78,440.8c-1.57.84-1.23,3.21-1.52,4.7-.35,1.77-1.18,3.76-2.91,4.58-2.25,1.06-1.23,5.13,1.31,4.82,3.58-.43,5.78-4.11,6.46-7.43.35-1.72.06-8.48-3.34-6.68h0Z"/>
    <path class="cls-6" d="m208.31,441.8c-.1.59-.16,1.13.02,1.71.19.57.42,1.05.81,1.51.76.89,1.96,1.4,3.09.92,1.32-.56,1.66-2.16.98-3.36-.12-.2-.25-.4-.37-.6-.08-.14-.27-.58,0,.06-.12-.28-.23-.54-.39-.79-.51-.77-1.32-1.21-2.26-1.08-.81.11-1.74.75-1.88,1.62h0Z"/>
    <path class="cls-6" d="m211.35,430.53c-.47,1.05-.55,2.2.07,3.23.62,1.03,1.81,1.79,3.04,1.39,1.22-.4,1.64-1.68,1.24-2.83-.28-.81-.84-1.51-1.36-2.18-.71-.9-2.52-.66-2.98.38h0Z"/>
    <path class="cls-6" d="m224.28,426.46c-1.13.4-1.74,1.59-1.59,2.75.21,1.54,1.51,2.54,3.06,2.17.62-.15,1.09-.68,1.27-1.27.04-.13.02-.1-.06.11-.15.35-.1.24.14-.34.09-.38.09-.78,0-1.16-.1-.45-.4-.86-.67-1.22-.48-.62-1.29-1.35-2.15-1.05h0Z"/>
    <path class="cls-6" d="m283.51,428.28c-.2,1.55,1.55,3.19,3.07,2.54,1.52-.64,1.59-3,.37-3.97-.65-.52-1.39-.76-2.2-.42-.8.34-1.14,1.02-1.24,1.84h0Z"/>
    <path class="cls-6" d="m297.15,429.3c-1.33-.42-2.55.62-2.9,1.85-.35,1.24.18,2.58,1.32,3.2.98.54,2.18.06,2.51-1.02.02-.06.12-.27.11-.33-.04.09-.07.17-.11.26.12-.18.19-.36.22-.57.1-.39.11-.91.05-.34.03-.29.08-.56.09-.84.02-.91-.34-1.91-1.29-2.21h0Z"/>
    <path class="cls-6" d="m299.05,440.68c-.52.22-.99.46-1.28.97-.32.54-.41,1.21-.24,1.82.29,1.07,1.45,1.98,2.59,1.61.96-.31,1.59-1.23,1.57-2.24-.01-.68-.33-1.35-.87-1.77-.46-.36-1.19-.63-1.77-.39h0Z"/>
    <path class="cls-6" d="m211.49,43.99c-1.51.09-2.47,1.48-2.95,2.81-.45,1.26-.27,2.62.32,3.8.27.53.98.52,1.37.18,1.58-1.38,3.35-3.96,2.43-6.11-.17-.41-.75-.7-1.18-.68h0Z"/>
    <path class="cls-6" d="m214.16,46.66c1.37-.45,1.62-.59.75-.44-.29.08-.54.23-.75.44-.19.18-.36.39-.48.62-.34.64-.5,1.47-.22,2.16.24.59.59,1.06,1.24,1.24.59.16,1.31,0,1.73-.46.83-.92.95-2.12.4-3.22-.5-1.01-1.91-1.05-2.66-.34h0Z"/>
    <path class="cls-6" d="m295.02,46.53c-.48,1.98.75,4.03,2.72,4.53.46.12,1.04-.15,1.14-.65.38-1.85-.23-3.6-1.75-4.74-.74-.56-1.91.03-2.11.86h0Z"/>
    <path class="cls-6" d="m301.16,51.25c-1.23,1.3-1.42,3.89.36,4.84.64.34,1.45.27,1.97-.25,1.42-1.43.61-3.86-.99-4.76-.42-.24-1-.19-1.34.17h0Z"/>
    <path class="cls-6" d="m251.42,118.77c.84,1.48,2.78,1.69,4.31,1.44,1.53-.24,2.7-1.1,3.58-2.35.4-.56-.03-1.34-.62-1.52-1.14-.34-2.28-.61-3.48-.57-1.24.05-2.65.07-3.55,1.04-.49.53-.62,1.31-.25,1.95h0Z"/>
    <path class="cls-6" d="m275.14,107.86c-.26.99-.43,2.08-.12,3.07.27.86.95,1.67,1.87,1.87.73.16,1.4.1,2.06-.27.81-.46,1.33-1.38,1.32-2.31,0-1.06-.43-2.03-.99-2.9-.49-.78-1.34-1.21-2.26-1.08-.87.12-1.66.75-1.89,1.62h0Z"/>
    <path class="cls-6" d="m231.85,108.3c0,.05-.01.11-.02.16.03-.24.06-.48.1-.72-.09.58-.08,1.13-.14,1.71-.07.67.36,1.52.82,1.98.49.49,1.28.85,1.98.82,1.53-.07,2.78-1.23,2.8-2.8,0-.89-.16-1.71-.57-2.5-.52-1-1.93-1.57-3.01-1.22-.44.14-.83.37-1.17.68-.55.51-.69,1.18-.78,1.88h0Z"/>
    <path class="cls-6" d="m295,86.08c-1.05.89-.94,2.72-.84,3.97.14,1.67.57,3.12,1.45,4.54.39.63,1.3.48,1.52-.2.53-1.62.61-3.12.34-4.79-.2-1.25-.5-3-1.73-3.62-.26-.13-.53-.09-.75.1h0Z"/>
    <path class="cls-6" d="m301.55,93.96c-.72,1.07-1.16,2.92-.18,3.93.44.45,1.13.5,1.67.22,1.66-.86,1.06-3.71-.47-4.41-.38-.17-.77-.1-1.01.27h0Z"/>
    <path class="cls-6" d="m208.12,99.15c-1.43.27-2.53,1.82-2.91,3.15-.32,1.14-.16,2.92,1,3.58,2.11,1.19,4.03-3.71,3.99-5.15-.03-1.13-1.01-1.78-2.07-1.58h0Z"/>
    <path class="cls-6" d="m215.64,102.82c-1.15-.4-2.33.63-2.8,1.61-.65,1.36-.41,2.68.85,3.56.43.3,1.08.25,1.51,0,.41-.24.81-.52,1.06-.94.17-.28.27-.6.34-.91.02-.18.05-.37.07-.55-.03.19-.03.14.02-.16.1-.97.02-2.23-1.06-2.6h0Z"/>
    <path class="cls-6" d="m208.94,120.9c-.35.76-.5,1.54-.27,2.36.18.64.6,1.02,1.07,1.45.33.31.83.31,1.16,0,.46-.43.89-.81,1.07-1.45.23-.83.08-1.61-.27-2.36-.49-1.04-2.26-1.04-2.75,0h0Z"/>
    <path class="cls-6" d="m299.84,119.76c-.83.26-1.38.87-1.59,1.71-.12.48-.11,1.01.03,1.49.2.66.59,1.01,1.12,1.4,1.16.85,2.76-.08,3.13-1.27.46-1.48-.9-3.89-2.7-3.33h0Z"/>
    <path class="cls-6" d="m245.76,162.77c-.15,1.28.74,2.6,1.67,3.41,1.02.9,2.89,1.68,4.02.48.97-1.03.05-2.49-.74-3.3-.83-.85-1.77-1.74-2.89-2.16-1.09-.42-1.95.63-2.06,1.57h0Z"/>
    <path class="cls-6" d="m255.58,161.62c-.9,1.85-.73,4.42,1.24,5.48.55.29,1.31.26,1.75-.23,1.48-1.62,1.04-4.1-.46-5.58-.69-.68-2.07-.62-2.53.33h0Z"/>
    <path class="cls-6" d="m264.65,156.12c-1.69,1.48-1.91,4.58.06,5.89.56.37,1.32.19,1.79-.23,1.46-1.3,1.19-3.9.2-5.4-.48-.74-1.4-.84-2.05-.26h0Z"/>
    <path class="cls-6" d="m249.11,184.64c-.08,2.75.1,6.26,1.93,8.44.35.41,1.09.38,1.45,0,2.28-2.46,1.53-6.64.08-9.37-.89-1.68-3.4-.83-3.46.94h0Z"/>
    <path class="cls-6" d="m258.78,186.96c-1.73.35-2.1,3.31-2.38,4.66-.49,2.32-1.16,4.5-.09,6.72.26.54,1.01.65,1.49.39,2.53-1.37,3.04-4.62,3.04-7.28,0-.95-.25-4.87-2.06-4.5h0Z"/>
    <path class="cls-6" d="m266.75,181.84c-1.6,1.53-1.64,5,.3,6.22.6.38,1.7.32,2.17-.28.82-1.05.88-2,.63-3.3-.19-.98-.44-1.85-1.06-2.65-.49-.62-1.53-.49-2.04,0h0Z"/>
    <path class="cls-6" d="m299.22,188.15c-.3,1.61-.14,3.24-.18,4.87-.04,1.61-.14,3.25.87,4.61.24.33.72.65,1.15.47,2.11-.89,2.71-2.94,2.77-5.08.05-2-.3-4.68-2.08-5.89-.87-.59-2.33-.03-2.53,1.03h0Z"/>
    <path class="cls-6" d="m204.28,190.02c-1.01,1.34-.62,3.38-.3,4.92.34,1.64,1.06,3.03,2.21,4.25.42.45,1.38.41,1.65-.21,1.17-2.7,1.33-7.69-1.48-9.5-.75-.48-1.61-.09-2.08.55h0Z"/>
    <path class="cls-6" d="m212.49,196.85c-.81.66-.9,1.84-.82,2.82.12,1.46.81,2.64,2.25,3.09.7.22,1.34-.16,1.74-.71,1-1.38.41-3.08-.6-4.28-.57-.68-1.66-1.67-2.56-.93h0Z"/>
    <path class="cls-6" d="m301.47,285.13c-.75,2.99-.67,6.86.25,9.8.27.87,1.3.89,1.79.23,2.13-2.82,2.3-7.32.6-10.38-.6-1.08-2.34-.85-2.65.35h0Z"/>
    <path class="cls-6" d="m306.52,299.6c-.88,1.05-.98,2.37-1.08,3.7-.1,1.31-.11,2.75.67,3.87.67.96,1.72,1.03,2.61.34,2.25-1.75,1.9-6.53-.27-8.15-.52-.39-1.52-.24-1.94.25h0Z"/>
    <path class="cls-6" d="m305.23,315.42c-1.75.36-2.36,2.91-1.96,4.38.55,2.02,3.55,2.02,4.09,0,.29-1.06.07-2.28-.49-3.23-.29-.49-.97-1.3-1.64-1.16h0Z"/>
    <path class="cls-6" d="m202.98,309.63c-1.45,2.85-.67,6.44.79,9.14.32.59,1.37.67,1.67,0,1.13-2.53,2.14-5.95,1.11-8.67-.55-1.44-2.74-2.09-3.57-.47h0Z"/>
    <path class="cls-6" d="m208.65,322.69c-.37.62-.57,1.44-.53,2.17.03.74.44,1.32.8,1.83.24.34.58.48.99.4,2.46-.46,2.56-3.63.74-4.92-.64-.46-1.62-.11-2,.52h0Z"/>
    <path class="cls-6" d="m204.16,332.68c-.55.93-.77,2.1-.59,3.16.1.59.33,1.14.72,1.61.35.42.78.56,1.19.77.38.19.84.16,1.16-.15.22-.22.58-.43.8-.81.34-.58.41-1.34.34-1.98-.13-1.06-.69-2.16-1.5-2.87-.65-.57-1.65-.51-2.12.27h0Z"/>
    <path class="cls-6" d="m303.62,390.86c-1.13,2.52-.47,5.42,1.13,7.59.4.54,1.22.65,1.6,0,1.31-2.23,1.83-5.28.46-7.59-.65-1.1-2.6-1.31-3.19,0h0Z"/>
    <path class="cls-6" d="m204.23,413.52c-.5,2.33-.26,5.24,1.67,6.92.44.38,1.13.46,1.56,0,1.7-1.82,2.37-6.01.44-7.89-1.13-1.1-3.31-.69-3.67.97h0Z"/>
    <path class="cls-6" d="m247.54,457.23c-.31,1.32.23,2.66.63,3.91.42,1.31.93,2.53,1.9,3.53.36.37,1.05.39,1.41,0,2.26-2.47.7-7.95-2.85-8.27-.47-.04-.98.38-1.09.83h0Z"/>
    <path class="cls-6" d="m256.25,459.03c-.67,1.15-.43,2.6-.1,3.84.36,1.33.92,2.45,2.33,2.86.51.15,1.13,0,1.5-.4,1.02-1.08.94-2.32.57-3.68-.33-1.21-.85-2.59-1.99-3.23-.8-.45-1.84-.19-2.31.61h0Z"/>
    <path class="cls-6" d="m260.49,448.91c-.61,1.03-.6,2.35-.3,3.49.3,1.12,1.01,1.9,1.85,2.65.42.38,1.17.37,1.46-.19.49-.97.92-1.9.83-3.02-.09-1.15-.49-2.5-1.42-3.24-.76-.61-1.86-.61-2.41.31h0Z"/>
    <path class="cls-6" d="m228.97,216.74c-2.64,2.91-1.01,8.49,1.33,11.1.5.56,1.59.3,1.73-.46.38-1.94.38-3.74.13-5.7-.22-1.77-.25-3.51-1.41-4.94-.42-.51-1.35-.47-1.77,0h0Z"/>
    <path class="cls-6" d="m234.95,224.88c-1.11,2.02-.01,5.01,2.29,5.56.78.18,1.49-.24,1.75-.99.54-1.59-.02-3.77-1.26-4.92-.81-.76-2.21-.67-2.78.36h0Z"/>
    <path class="cls-6" d="m280.52,207.62c-1.42.69-1.5,2.8-1.57,4.18-.08,1.88.18,3.76,1.31,5.31.46.63,1.34.7,1.79,0,1.26-1.94,1.25-4.27.87-6.47-.16-.93-.83-3.78-2.4-3.01h0Z"/>
    <path class="cls-6" d="m284.3,205.34c-.34,1.28-.25,2.84.09,4.11.27,1.01,1.21,2.38,2.43,2.14,1.24-.25,1.86-1.8,1.86-2.9.01-1.46-.49-3.06-1.54-4.09-.9-.89-2.51-.5-2.84.75h0Z"/>
    <path class="cls-2" d="m229.38,69.6c1.07.41,2.32,0,3.4-.23,1.3-.28,2.32-.52,3.14-1.65.68-.95.08-2.14-.72-2.74-1.09-.82-2.65-.47-3.84-.05-1.13.39-2.5.96-3.01,2.12-.48,1.1-.09,2.12,1.04,2.56h0Z"/>
    <path class="cls-2" d="m277.06,66.71c.29,1.22,1.75,1.47,2.79,1.69,1.2.25,2.34.79,3.56.86,1.57.09,2.88-1.98,1.9-3.32-1.2-1.64-3.07-1.99-5.01-1.69-1.13.17-3.64.82-3.25,2.46h0Z"/>
    <path class="cls-2" d="m269.09,90.11c-.57.58-.67,1.32-.78,2.08-.05.35-.11.43-.15,1.02-.03.42,0,.85.15,1.25.5,1.38,2.15,1.94,3.27.86.86-.82,1.03-2.01.86-3.13-.17-1.13-.7-2.05-1.78-2.49-.51-.21-1.2.04-1.56.41h0Z"/>
    <path class="cls-2" d="m275.98,90.94c-.93,1.21-.7,3.23.37,4.27.98.96,2.71.54,3.07-.81.44-1.66-.56-3.39-2.11-3.99-.52-.2-1.02.15-1.32.54h0Z"/>
    <path class="cls-2" d="m231.18,90.22c-1.12.26-2.01,1.26-2.53,2.25-.55,1.03-.89,2.7.21,3.52,2.1,1.57,4.76-2.14,4.63-4.02-.08-1.21-1.09-2.03-2.3-1.75h0Z"/>
    <path class="cls-2" d="m234.95,92.74c-.78.18-1.43.84-1.77,1.55-.53,1.12-.45,2.22.35,3.18.75.89,2.03.61,2.81,0,1.05-.82,1.13-2.87.49-3.96-.39-.66-1.16-.93-1.89-.77h0Z"/>
    <path class="cls-2" d="m303.59,104.95c-.98.64-1.47,1.9-1.07,3.03.35,1.01,1.25,1.67,2.34,1.53.95-.13,1.97-1.04,1.85-2.09-.09-.74-.2-1.26-.7-1.84-.2-.24-.46-.47-.74-.62-.52-.26-1.16-.33-1.68,0h0Z"/>
    <path class="cls-2" d="m203.86,84.56c-.82.67-1.08,1.92-.81,2.9.35,1.28,2.08,2.18,3.27,1.33.54-.38.9-.76,1.16-1.37.26-.62.28-1.2.14-1.86-.16-.75-.85-1.37-1.57-1.57-.83-.23-1.54.06-2.18.58h0Z"/>
    <path class="cls-2" d="m304.81,79.93c-.13,1.74,1.9,3.49,3.57,2.97.89-.28,1.44-1.04,1.49-1.95.09-1.76-2.16-3.23-3.79-2.68-.77.26-1.21.86-1.27,1.66h0Z"/>
    <path class="cls-2" d="m227.73,190.9c-1.46,1.67-3.48,7.35-.13,8.22,3.33.86,3.53-5.46,3.22-7.4-.21-1.36-2.24-1.8-3.1-.82h0Z"/>
    <path class="cls-2" d="m234.5,198.06c-1.42,1.26-1.54,3.73-.82,5.34.63,1.42,3.1,1.42,3.73,0,.72-1.61.6-4.08-.82-5.34-.63-.55-1.46-.56-2.09,0h0Z"/>
    <path class="cls-2" d="m235.6,188.49c0,1.36.83,2.55,2.11,2.99.91.31,1.8-.22,2.31-.94.63-.88.53-2.37-.08-3.22-.58-.82-1.59-1.4-2.63-1.07-.98.32-1.71,1.19-1.71,2.24h0Z"/>
    <path class="cls-2" d="m274.76,193.82c-1.04,1.37-1.11,4.83,1.15,5.09,2.3.27,3.21-2.85,2.72-4.59-.23-.81-.93-1.41-1.76-1.52-.91-.12-1.58.31-2.11,1.01h0Z"/>
    <path class="cls-2" d="m277.14,222.95c-1.45.37-2.24,1.99-2.64,3.31-.39,1.29-.36,3.47,1.26,3.91,1.64.45,2.81-1.38,3.25-2.67.47-1.4.6-2.96-.36-4.16-.34-.42-1.01-.52-1.5-.4h0Z"/>
    <path class="cls-2" d="m283.29,228.57c-.66.09-1.14.28-1.6.77-.48.52-.79,1.3-.71,2.01.12,1.09.88,2.15,2.1,2.1,1.23-.06,1.98-.93,2.1-2.1.08-.79-.28-1.52-.77-2.11-.26-.31-.68-.73-1.11-.67h0Z"/>
    <path class="cls-2" d="m288.46,175.42c-.75,1.02-.85,2.63-.51,3.82.23.8,1.03,1.87,1.9,2,.86.13,1.93-.76,2.34-1.45.63-1.06.93-2.66.46-3.83-.76-1.89-2.97-2.21-4.18-.55h0Z"/>
    <path class="cls-2" d="m209.87,169.25c-2.03,1.77-1.74,6.1,1.13,6.83.45.11,1.06.02,1.37-.36-.23.29-.27.3,0,0,.12-.14.25-.31.36-.46.4-.57.59-1.19.65-1.88.09-1.02.1-2.29-.23-3.26-.49-1.45-2.14-1.87-3.28-.87h0Z"/>
    <path class="cls-2" d="m204.17,265.94c-2.41,2.48-1.66,8.45-.38,11.35.29.65,1.26.54,1.58,0,.97-1.62,1.38-3.55,1.61-5.4.23-1.8.58-4.13-.57-5.66-.54-.71-1.54-1.01-2.24-.29h0Z"/>
    <path class="cls-2" d="m207.67,279.42c-1.04,1.08-1.63,2.42-1.61,3.94.01,1.3.7,2.83,2.12,3.08,1.07.19,1.96-.98,2.2-1.88.4-1.44.18-3.06-.2-4.47-.29-1.08-1.72-1.47-2.51-.66h0Z"/>
    <path class="cls-2" d="m306.76,265.31c-2.34,1.45-1.67,5.16.61,6.3.46.23,1.04.13,1.31-.34.97-1.72,1.36-4.12-.04-5.72-.44-.5-1.32-.59-1.88-.24h0Z"/>
    <path class="cls-2" d="m305.37,364.93c-2.86,1.15-2.04,6.14-1.37,8.39.18.6,1.1.8,1.4.18.93-1.86,1.55-3.8,1.39-5.9-.03-.37-.47-3.06-1.43-2.67h0Z"/>
    <path class="cls-2" d="m307.15,377.69c-.87.77-1.32,1.99-1.28,3.15.03,1,.72,2.19,1.77,2.37.78.13,1.43-.43,1.86-1.25.54-1.04.52-2.51.18-3.61-.35-1.12-1.67-1.43-2.52-.67h0Z"/>
    <path class="cls-2" d="m304.78,422.37c-1.16,1.58-.52,4.77,1.89,4.45,2.39-.32,2.18-3.57.64-4.78-.88-.68-1.86-.59-2.53.33h0Z"/>
    <path class="cls-2" d="m205.77,392.77c-1.15.9-1.25,2.73-1.3,4.09-.06,1.58.4,3.11,1.13,4.5.35.67,1.42.67,1.77,0,.73-1.39,1.19-2.92,1.13-4.5-.05-1.36-.15-3.19-1.3-4.09-.47-.37-.96-.38-1.44,0h0Z"/>
    <path class="cls-2" d="m209.07,383.35c-.87.96-1.48,2.4-1,3.69.69,1.89,3.16,1.89,3.86,0,.47-1.28-.14-2.73-1-3.69-.46-.51-1.39-.5-1.85,0h0Z"/>
  </g>
  <g>
    <path class="cls-12" d="m240.15,52.84c.17.27.34.55.52.83.35.56.71,1.13,1.08,1.71,1-.1,2-.18,2.99-.25"/>
    <path class="cls-10" d="m252.2,55h10.63c.19,0,.38,0,.57,0"/>
    <path class="cls-12" d="m267.14,55.06c1.04.03,2.04.06,3,.11.49-.76.97-1.51,1.43-2.23.06-.1.12-.2.19-.3"/>
    <path class="cls-11" d="m275.11,47.66c3.4-4.73,6.87-8.55,10.66-11.79,2-1.71,6.7-5.72,12.88-5.72,3.91,0,7.52,1.54,10.45,4.46,4.85,4.83,6.33,11.76,7.41,16.81.15.7.29,1.37.44,1.99,3.42,14.58,4.92,27.49,4.99,43.13.03.56.04,1.12.04,1.68v349.98c0,18.56-15.1,33.66-33.66,33.66h-64.86c-18.56,0-33.66-15.1-33.66-33.66V98.23c0-.57.02-1.13.05-1.7.08-15.63,1.57-28.54,4.99-43.12.14-.6.28-1.27.43-1.98,1.16-5.57,2.75-13.19,8.54-17.89,2.75-2.23,5.99-3.41,9.38-3.41,6.36,0,11.04,4.13,13.55,6.35,4.18,3.7,7.98,8.15,11.78,13.83"/>
  </g>
</svg>